<svg xmlns="http://www.w3.org/2000/svg" xmlns:xlink="http://www.w3.org/1999/xlink" version="1.1" id="Layer_1" x="0px" y="0px" viewBox="0 0 121 79" style="enable-background:new 0 0 121 79;width: 84px;height: 58px;" xml:space="preserve" class="header-main__white-logo lazy true" data-darkreader-inline-invert="" data-ll-status="entered">
<style type="text/css">
	.st0{fill:#1B2750;}
	.st1{fill:#CE181E;}
	.st2{fill:#849EC3;}
</style><style class="darkreader darkreader--sync" media="screen"></style>
<g>
	<path class="st0" d="M28.4,7c-0.9-0.2-2-0.3-2.9-0.3c-5,0-9.9,2.8-10.6,7.1c0,0.2,0,0.7,0,0.7h9.7c0.5,0,0.8,0.4,0.8,0.8v2.8   c0,0.5-0.4,0.9-0.8,0.9H15c0,0,0,0.5,0,0.7c0.7,4.3,5.6,7.1,10.6,7.1c0.9,0,2-0.1,2.9-0.3V7z"></path>
	<path class="st1" d="M28.4,31v-2.4h-3c-9.8,0-17.7-5.4-17.7-12c0-6.7,7.9-12,17.7-12h3V2.2h-3C13.3,2.2,3.8,7.9,3.8,16.6   c0,9,9.4,14.4,21.6,14.4H28.4z"></path>
	<path class="st0" d="M114.9,6.1c0.2-0.1,0.3-0.2,0.4-0.3c0.1-0.1,0.1-0.3,0.1-0.5c0-0.1,0-0.3-0.1-0.4c-0.1-0.1-0.1-0.2-0.3-0.3   c-0.1-0.1-0.3-0.1-0.5-0.1h-0.9v2.8h0.4V6.1h0.3c0,0,0.1,0.1,0.2,0.3l0.1,0.2l0.4,0.7h0.5l-0.4-0.9C115.1,6.2,115,6.1,114.9,6.1    M114.5,5.8h-0.3v-1h0.3c0.1,0,0.3,0,0.3,0.1c0.1,0,0.1,0.1,0.1,0.2c0,0.1,0.1,0.1,0.1,0.2c0,0.1,0,0.3-0.1,0.4   C114.8,5.7,114.7,5.8,114.5,5.8"></path>
	<path class="st0" d="M112.3,5.9c0-1.3,1-2.3,2.3-2.3l0,0c1.3,0,2.3,1,2.3,2.3l0,0c0,1.3-1,2.3-2.3,2.3l0,0   C113.3,8.2,112.3,7.2,112.3,5.9L112.3,5.9z M112.6,5.9c0,1.1,0.9,2,2,2l0,0c1.1,0,2-0.9,2-2l0,0c0-1.1-0.9-2-2-2l0,0   C113.5,3.9,112.6,4.8,112.6,5.9L112.6,5.9z"></path>
	<path class="st0" d="M44.9,13.4c0-4.9-2.8-9-12.3-9V31h2.7v-8.7C41.6,21.3,44.9,16.7,44.9,13.4z M35.3,19.9V6.9   c3.9,0.7,6.8,3.4,6.8,6.5C42.1,16.5,39.2,19.1,35.3,19.9z"></path>
	<rect x="48.9" y="4.5" class="st0" width="2.7" height="26.6"></rect>
	<path class="st0" d="M80.3,18.9c0,5.1-2.7,9.3-6.1,9.3c-3.4,0-6.1-4.1-6.1-9.3c0,0,0-14.5,0-14.5h-2.7c0,0,0,14.5,0,14.5   c0,6.7,4,12.1,8.8,12.1c4.9,0,8.8-5.4,8.8-12.1c0,0,0-14.5,0-14.5h-2.7C80.3,4.5,80.3,18.9,80.3,18.9z"></path>
	<polygon class="st0" points="99,30.6 109.5,31.2 109.4,28.1 101.7,28.1 101.7,18.7 108.2,18.8 108.2,15.9 101.7,16.1 101.7,7.5    109,7.5 108.9,4.4 99,5  "></polygon>
	<path class="st0" d="M86.4,28.7C86.4,28.7,86.4,28.7,86.4,28.7L86.4,28.7c0,0,0.1,0,0.1,0l0,0c0.1,0,0.2-0.1,0.4-0.2l0,0   c0.2-0.1,0.4-0.2,0.6-0.3l0,0c0.2-0.1,0.5-0.2,0.8-0.4l0,0c0.3-0.1,0.6-0.3,0.9-0.5l0,0c0.3-0.2,0.6-0.3,0.9-0.5l0,0   c0.3-0.2,0.6-0.4,0.9-0.6l0,0c0.3-0.2,0.6-0.4,0.8-0.7l0,0c0.3-0.2,0.5-0.5,0.7-0.7l0,0c0.2-0.2,0.4-0.5,0.5-0.7l0,0   c0.1-0.2,0.3-0.5,0.3-0.7l0,0c0.1-0.2,0.1-0.4,0.1-0.6l0,0v0c0,0,0,0,0,0v0h0l0,0v0c0,0,0-0.1,0-0.1l0,0c0-0.2,0-0.4-0.1-0.6l0,0   c-0.1-0.2-0.2-0.5-0.3-0.8l0,0c-0.2-0.3-0.4-0.6-0.7-0.9l0,0c0,0,0,0,0,0l0,0c0,0-0.1,0-0.1-0.1l0,0c-0.1-0.1-0.2-0.2-0.3-0.3l0,0   c-0.3-0.2-0.6-0.5-1-0.7l0,0c-0.7-0.5-1.5-1-1.8-1.3l0,0c-0.6-0.5-1.1-1-1.6-1.4l0,0c-0.4-0.5-0.8-1-1.1-1.5l0,0   c-0.3-0.5-0.5-1-0.6-1.5l0,0c-0.1-0.3-0.1-0.7-0.1-1l0,0c0-0.2,0-0.4,0-0.6l0,0c0.1-0.5,0.2-1,0.4-1.4l0,0c0.2-0.4,0.4-0.8,0.7-1.2   l0,0c0.3-0.4,0.6-0.7,0.9-1.1l0,0c0.3-0.3,0.7-0.6,1-0.9l0,0C89,7.2,89.4,7,89.7,6.7l0,0c0.4-0.2,0.7-0.5,1.1-0.7l0,0   c0.4-0.2,0.7-0.4,1-0.6l0,0c0.3-0.2,0.6-0.3,0.9-0.4l0,0c0.3-0.1,0.5-0.2,0.7-0.3l0,0c0.2-0.1,0.4-0.2,0.5-0.2l0,0   c0.1,0,0.2-0.1,0.2-0.1l0,0l0,0l1,2.6c0,0,0,0,0,0l0,0c0,0-0.1,0-0.1,0l0,0c-0.1,0-0.2,0.1-0.4,0.2l0,0c-0.2,0.1-0.4,0.2-0.7,0.3   l0,0c-0.2,0.1-0.5,0.2-0.8,0.4l0,0c-0.3,0.1-0.6,0.3-0.9,0.5l0,0C92,8.6,91.7,8.8,91.4,9l0,0c-0.3,0.2-0.6,0.4-0.9,0.7l0,0   c-0.3,0.2-0.6,0.5-0.8,0.7l0,0c-0.2,0.2-0.4,0.5-0.6,0.7l0,0c-0.2,0.2-0.3,0.5-0.4,0.7l0,0c-0.1,0.2-0.2,0.5-0.2,0.7l0,0   c0,0.1,0,0.2,0,0.2l0,0c0,0.1,0,0.3,0,0.4l0,0c0,0.2,0.1,0.5,0.3,0.8l0,0c0.2,0.3,0.4,0.6,0.7,1l0,0c0.3,0.3,0.7,0.7,1.2,1.1l0,0   c0.2,0.2,0.8,0.6,1.5,1.1l0,0c0.6,0.5,1.3,0.9,1.7,1.3l0,0c0.1,0.1,0.2,0.2,0.4,0.3l0,0c0.4,0.5,0.8,0.9,1.1,1.4l0,0   c0.3,0.5,0.5,1,0.7,1.5l0,0c0.1,0.4,0.2,0.9,0.2,1.3l0,0c0,0.1,0,0.1,0,0.2l0,0v0v0c0,0.5-0.1,1-0.3,1.4l0,0   c-0.1,0.4-0.3,0.9-0.6,1.2l0,0c-0.2,0.4-0.5,0.7-0.8,1.1l0,0c-0.3,0.3-0.6,0.7-0.9,0.9l0,0c-0.3,0.3-0.7,0.6-1,0.8l0,0   c-0.4,0.3-0.7,0.5-1.1,0.7l0,0c-0.3,0.2-0.7,0.4-1,0.6l0,0c-0.3,0.2-0.7,0.4-1,0.5l0,0c-0.3,0.1-0.6,0.3-0.8,0.4l0,0   c-0.3,0.1-0.5,0.2-0.7,0.3l0,0c-0.2,0.1-0.3,0.1-0.5,0.2l0,0c-0.1,0-0.2,0.1-0.2,0.1l0,0L86.4,28.7L86.4,28.7z M93.4,22.9   L93.4,22.9C93.4,22.9,93.4,22.9,93.4,22.9L93.4,22.9L93.4,22.9L93.4,22.9L93.4,22.9L93.4,22.9z"></path>
	<path class="st0" d="M75.7,44.7c0-1.1-0.8-1.6-2.6-1.6h-7.9v3.2h7.9C74.9,46.3,75.7,45.7,75.7,44.7z"></path>
	<polygon class="st0" points="42.7,49 49.5,49 46.1,43.9  "></polygon>
	<path class="st0" d="M103.9,34H60.2H16.8H6.2v10.6v3.3v3.3c0,5.9,4.7,10.6,10.6,10.6h87.1h0h10.6V51.2v-3.3v-3.3   C114.5,38.8,109.7,34,103.9,34z M30.8,54.2H17.4V41.5v-0.2h2.4v11.2h11V54.2z M53,54.2l-2.3-3.4h-9.2l-2.2,3.4h-2.6l8.4-12.8l0-0.1   h1.9l8.6,12.9H53z M73.5,54.2H62.8V41.5v-0.2H73c3.4,0,5.2,1.1,5.2,3.3c0,1-0.5,1.8-1.3,2.3c1.7,0.8,2.5,1.9,2.5,3.4   C79.3,52.7,77.1,54.2,73.5,54.2z M95.7,54.5c-3.3,0-6.2-0.7-8.9-2.2l-0.2-0.1l1.4-1.5l0.1-0.1l0.1,0.1c2.4,1.4,5,2.1,7.5,2.1   c3.2,0,5.1-1.2,5.1-2.5c0-1-1.2-1.9-3.8-2.1c-2.9-0.2-5.2-0.2-7-0.8c-1.6-0.6-2.5-1.5-2.5-2.7c0-2.1,2.7-3.6,6.7-3.6   c2.9,0,5.7,0.7,8.2,2.1l0.2,0.1l-1.4,1.5l-0.1-0.1c-2.1-1.2-4.4-1.9-6.8-1.9c-1.3,0-2.4,0.2-3.1,0.6c-0.7,0.3-1.1,0.8-1.1,1.2   c0,0.4,0.2,0.7,0.7,1c1.4,0.8,3.8,0.6,6.9,0.9c3.6,0.3,5.7,1.8,5.7,3.9C103.3,52.7,100.4,54.5,95.7,54.5z"></path>
	<path class="st0" d="M73.9,48h-8.7v4.4h8.7c1.9,0,2.9-0.9,2.9-2.2C76.8,48.9,75.8,48.1,73.9,48z"></path>
	<rect x="56.8" y="15" class="st1" width="3.6" height="3.6"></rect>
	<path class="st2" d="M5.1,73.1l-0.2-0.5c-0.1-0.2-0.2-0.5-0.4-1.1l-1.2-3.3c0.2,0,0.3,0,0.5,0c0.1,0,0.3,0,0.4,0l0.1,0.3   c0,0.1,0.1,0.3,0.1,0.5l1.1,3.4l1.5-3.7l0.2-0.5c0.2,0,0.3,0,0.5,0c0.1,0,0.3,0,0.5,0l-0.6,1.3l-1.3,2.8L6,73.1c-0.2,0-0.4,0-0.5,0   C5.5,73.1,5.3,73.1,5.1,73.1z"></path>
	<path class="st2" d="M9.1,69c0-0.1,0.1-0.3,0.1-0.6c0.4-0.1,0.7-0.2,1-0.2c0.3,0,0.6-0.1,0.8-0.1c0.3,0,0.6,0,0.8,0.1   c0.3,0.1,0.5,0.1,0.6,0.3c0.2,0.1,0.3,0.3,0.3,0.4c0.1,0.2,0.1,0.3,0.1,0.5c0,0.2,0,0.6-0.1,1.1c0,0.5-0.1,1-0.1,1.4   c0,0.4,0,0.8,0,1.2c-0.2,0-0.3,0-0.4,0c-0.1,0-0.3,0-0.4,0l0.1-1.3l0.1-1.6c-0.1,0.1-0.2,0.1-0.3,0.2c-0.1,0-0.1,0.1-0.2,0.1   c-0.1,0-0.1,0.1-0.2,0.1c-0.1,0-0.3,0.1-0.5,0.1c-0.2,0.1-0.4,0.1-0.5,0.2C10.1,71,9.9,71,9.8,71.1c-0.1,0.1-0.2,0.1-0.3,0.2   c-0.1,0.1-0.1,0.2-0.2,0.3c0,0.1-0.1,0.2-0.1,0.3c0,0.2,0.1,0.3,0.2,0.5c0.1,0.1,0.2,0.2,0.4,0.3c0.2,0.1,0.3,0.1,0.6,0.1   c0.1,0,0.3,0,0.4,0c0.1,0,0.3-0.1,0.6-0.1c0,0.1-0.1,0.3-0.2,0.6c-0.2,0-0.4,0.1-0.6,0.1c-0.1,0-0.3,0-0.4,0c-0.4,0-0.8-0.1-1-0.2   c-0.2-0.1-0.4-0.3-0.6-0.5c-0.1-0.2-0.2-0.4-0.2-0.7c0-0.1,0-0.3,0.1-0.4c0-0.1,0.1-0.2,0.2-0.3C8.7,71.1,8.8,71,9,70.9   c0.1-0.1,0.3-0.2,0.4-0.2c0.1-0.1,0.3-0.1,0.5-0.2c0.2-0.1,0.5-0.1,1-0.3c0.1,0,0.3-0.1,0.4-0.1c0.1,0,0.2-0.1,0.3-0.1   c0.1,0,0.1-0.1,0.2-0.1c0.1,0,0.1-0.1,0.2-0.2c0-0.1,0.1-0.1,0.1-0.2c0-0.1,0-0.1,0-0.2c0-0.2-0.1-0.3-0.2-0.4   c-0.1-0.1-0.2-0.2-0.4-0.2c-0.2,0-0.4-0.1-0.6-0.1c-0.2,0-0.4,0-0.6,0.1c-0.2,0-0.4,0.1-0.6,0.1C9.5,68.8,9.3,68.9,9.1,69z"></path>
	<path class="st2" d="M14.1,73.1c0.1-1,0.1-2.2,0.2-3.5c0-1,0.1-2,0.1-3.1l0.4,0c0.1,0,0.2,0,0.4,0l-0.1,2.8L15,72.2l0,0.9   c-0.2,0-0.3,0-0.4,0C14.5,73.1,14.4,73.1,14.1,73.1z"></path>
	<path class="st2" d="M21,73.1c-0.2,0-0.3,0-0.4,0c-0.1,0-0.3,0-0.4,0l0-0.9c-0.1,0.1-0.1,0.3-0.2,0.3c-0.1,0.1-0.1,0.2-0.2,0.2   c-0.1,0.1-0.2,0.1-0.3,0.2c-0.1,0.1-0.2,0.1-0.3,0.1c-0.1,0-0.3,0.1-0.4,0.1c-0.2,0-0.3,0-0.5,0c-0.4,0-0.7-0.1-1-0.2   c-0.3-0.1-0.5-0.3-0.6-0.5c-0.1-0.2-0.2-0.5-0.2-0.9c0-0.1,0-0.2,0-0.3c0-0.1,0-0.3,0-0.5l0.1-1.6l0-0.5c0-0.1,0-0.3,0-0.5l0.4,0   c0.1,0,0.2,0,0.4,0c0,0.6-0.1,1.2-0.1,1.8c0,0.7-0.1,1.1-0.1,1.3c0,0.3,0,0.5,0.1,0.7c0.1,0.2,0.2,0.3,0.5,0.4   c0.2,0.1,0.5,0.1,0.7,0.1c0.2,0,0.5,0,0.7-0.1c0.2-0.1,0.3-0.2,0.5-0.3c0.1-0.1,0.3-0.3,0.3-0.5c0.1-0.2,0.1-0.4,0.2-0.6   c0-0.2,0-0.5,0.1-1c0-0.6,0-1.2,0.1-1.8l0.5,0c0.1,0,0.2,0,0.4,0c0,0.6-0.1,1.5-0.2,2.6C21,71.5,21,72.2,21,73.1z"></path>
	<path class="st2" d="M26.4,72.3c0,0.2-0.1,0.4-0.1,0.7c-0.3,0.1-0.6,0.1-0.8,0.2c-0.2,0-0.5,0-0.7,0c-0.4,0-0.8-0.1-1.1-0.1   c-0.3-0.1-0.6-0.3-0.8-0.5c-0.2-0.2-0.4-0.5-0.5-0.8c-0.1-0.3-0.2-0.6-0.2-1c0-0.5,0.1-0.9,0.3-1.3c0.2-0.4,0.5-0.7,0.8-1   c0.4-0.2,0.8-0.3,1.4-0.3c0.3,0,0.6,0,0.8,0.1c0.3,0.1,0.5,0.2,0.7,0.4c0.2,0.2,0.3,0.4,0.4,0.6c0.1,0.3,0.1,0.5,0.1,0.8   c0,0.1,0,0.2,0,0.3h-3.7c0,0.2,0,0.3,0,0.4c0,0.3,0.1,0.6,0.2,0.9c0.1,0.3,0.3,0.5,0.6,0.6c0.3,0.1,0.6,0.2,1,0.2   C25.3,72.6,25.8,72.5,26.4,72.3z M23.1,70H26c0-0.2,0-0.4,0-0.5c0-0.1-0.1-0.2-0.1-0.4c-0.1-0.1-0.1-0.2-0.2-0.3   c-0.1-0.1-0.2-0.2-0.4-0.2c-0.1,0-0.3-0.1-0.5-0.1c-0.2,0-0.4,0-0.5,0.1c-0.2,0.1-0.3,0.1-0.4,0.2c-0.1,0.1-0.2,0.2-0.3,0.3   c-0.1,0.1-0.2,0.2-0.2,0.4C23.2,69.7,23.2,69.8,23.1,70z"></path>
	<path class="st2" d="M32.8,72.5c0,0.2-0.1,0.4-0.1,0.6c-0.2,0.1-0.4,0.1-0.5,0.1c-0.1,0-0.2,0-0.4,0c-0.3,0-0.5,0-0.7-0.1   c-0.2-0.1-0.3-0.2-0.4-0.3c-0.1-0.2-0.1-0.4-0.1-0.6c0,0,0-0.1,0-0.2c0-0.1,0-0.4,0-0.9l0.1-2.2h-0.6c0-0.1,0-0.3,0-0.6h0.7   c0-0.2,0-0.5,0-0.9c0.3-0.1,0.6-0.1,0.8-0.2c0,0.5,0,0.8,0,1.1h1.3c0,0.2,0,0.4,0,0.6h-1.3l-0.1,2.7l0,0.2c0,0.2,0,0.4,0.1,0.5   c0.1,0.1,0.1,0.2,0.2,0.3c0.1,0.1,0.2,0.1,0.3,0.1c0.1,0,0.2,0,0.3,0C32.4,72.6,32.5,72.5,32.8,72.5z"></path>
	<path class="st2" d="M33.6,73.1l0.1-2.1l0.1-2.9l0-1.6l0.4,0c0.1,0,0.3,0,0.4,0l-0.1,1.7l0,1c0.1-0.1,0.1-0.2,0.2-0.3   c0.1-0.1,0.1-0.2,0.2-0.2c0.1-0.1,0.2-0.2,0.3-0.2c0.1-0.1,0.2-0.1,0.3-0.2c0.1,0,0.3-0.1,0.4-0.1c0.2,0,0.3,0,0.5,0   c0.3,0,0.5,0,0.8,0.1c0.2,0.1,0.5,0.2,0.6,0.3c0.2,0.1,0.3,0.3,0.4,0.5c0.1,0.2,0.1,0.4,0.1,0.6c0,0.1,0,0.2,0,0.3   c0,0.2,0,0.4,0,0.7l-0.1,1.8c0,0.2,0,0.4,0,0.7c-0.2,0-0.3,0-0.4,0c-0.1,0-0.3,0-0.5,0c0-0.3,0.1-0.9,0.1-1.6   c0-0.7,0.1-1.3,0.1-1.6c0-0.3,0-0.5-0.1-0.6c-0.1-0.2-0.2-0.3-0.5-0.4c-0.2-0.1-0.5-0.1-0.7-0.1c-0.2,0-0.5,0-0.7,0.1   c-0.2,0.1-0.4,0.2-0.5,0.3c-0.1,0.1-0.2,0.3-0.3,0.4c-0.1,0.2-0.1,0.4-0.2,0.6c-0.1,0.3-0.1,0.7-0.1,1.3c0,0.3,0,0.9-0.1,1.7   c-0.2,0-0.3,0-0.4,0C34,73.1,33.8,73.1,33.6,73.1z"></path>
	<path class="st2" d="M39.7,73.1c0.1-1.9,0.2-3.3,0.2-4.4l0-0.4c0.2,0,0.3,0,0.4,0c0.1,0,0.3,0,0.4,0l0,0.8c0.1-0.2,0.2-0.4,0.3-0.4   c0.1-0.1,0.2-0.2,0.3-0.3c0.1-0.1,0.2-0.1,0.4-0.2c0.1,0,0.3-0.1,0.5-0.1c0.1,0,0.3,0,0.4,0c0,0.2,0,0.5,0,0.7   c-0.2-0.1-0.4-0.1-0.5-0.1c-0.2,0-0.4,0-0.5,0.1c-0.2,0.1-0.3,0.2-0.4,0.3c-0.1,0.1-0.2,0.3-0.3,0.5c-0.1,0.1-0.1,0.3-0.1,0.5   c0,0.2-0.1,0.6-0.1,1.2c0,0.4,0,0.9,0,1.4v0.3c-0.2,0-0.3,0-0.4,0C40,73.1,39.9,73.1,39.7,73.1z"></path>
	<path class="st2" d="M45.7,68.1c0.3,0,0.7,0,1,0.1c0.3,0.1,0.6,0.2,0.8,0.5c0.2,0.2,0.4,0.5,0.5,0.8c0.1,0.3,0.2,0.7,0.2,1   c0,0.4-0.1,0.8-0.2,1.1c-0.1,0.4-0.3,0.6-0.5,0.9c-0.2,0.2-0.5,0.4-0.8,0.5c-0.3,0.1-0.7,0.2-1,0.2c-0.3,0-0.7-0.1-1-0.2   c-0.3-0.1-0.6-0.3-0.8-0.5c-0.2-0.2-0.4-0.5-0.5-0.8c-0.1-0.3-0.2-0.6-0.2-1c0-0.5,0.1-1,0.3-1.4c0.2-0.4,0.5-0.7,0.9-0.9   C44.8,68.2,45.2,68.1,45.7,68.1z M45.7,68.7c-0.3,0-0.6,0.1-0.9,0.2c-0.3,0.2-0.5,0.4-0.6,0.7c-0.1,0.3-0.2,0.7-0.2,1.1   c0,0.3,0.1,0.6,0.2,0.9c0.1,0.3,0.3,0.5,0.5,0.7c0.3,0.2,0.6,0.3,0.9,0.3c0.2,0,0.5,0,0.7-0.1c0.2-0.1,0.4-0.2,0.6-0.4   c0.2-0.2,0.3-0.4,0.4-0.7c0.1-0.3,0.1-0.6,0.1-0.9c0-0.3,0-0.5-0.1-0.8c-0.1-0.2-0.2-0.4-0.4-0.6c-0.2-0.2-0.3-0.3-0.5-0.3   C46.1,68.7,45.9,68.7,45.7,68.7z"></path>
	<path class="st2" d="M53.8,73.1c-0.2,0-0.3,0-0.4,0c-0.1,0-0.3,0-0.4,0l0-0.9c-0.1,0.1-0.1,0.3-0.2,0.3c-0.1,0.1-0.1,0.2-0.2,0.2   c-0.1,0.1-0.2,0.1-0.3,0.2C52.2,73,52.1,73,52,73.1c-0.1,0-0.3,0.1-0.4,0.1c-0.2,0-0.3,0-0.5,0c-0.4,0-0.7-0.1-1-0.2   c-0.3-0.1-0.5-0.3-0.6-0.5c-0.1-0.2-0.2-0.5-0.2-0.9c0-0.1,0-0.2,0-0.3c0-0.1,0-0.3,0-0.5l0.1-1.6l0-0.5c0-0.1,0-0.3,0-0.5l0.4,0   c0.1,0,0.2,0,0.4,0c0,0.6-0.1,1.2-0.1,1.8c0,0.7-0.1,1.1-0.1,1.3c0,0.3,0,0.5,0.1,0.7c0.1,0.2,0.2,0.3,0.5,0.4   c0.2,0.1,0.5,0.1,0.7,0.1c0.2,0,0.5,0,0.7-0.1c0.2-0.1,0.3-0.2,0.5-0.3c0.1-0.1,0.3-0.3,0.3-0.5c0.1-0.2,0.1-0.4,0.2-0.6   c0-0.2,0-0.5,0.1-1c0-0.6,0-1.2,0.1-1.8l0.5,0c0.1,0,0.2,0,0.4,0c0,0.6-0.1,1.5-0.2,2.6C53.8,71.5,53.8,72.2,53.8,73.1z"></path>
	<path class="st2" d="M55.4,74.5c0.4,0.1,0.8,0.2,1.1,0.3c0.3,0,0.5,0.1,0.8,0.1c0.3,0,0.5,0,0.7-0.1c0.2-0.1,0.4-0.1,0.5-0.3   c0.1-0.1,0.2-0.2,0.3-0.3c0.1-0.2,0.1-0.4,0.2-0.7c0-0.2,0.1-0.7,0.1-1.4c-0.1,0.1-0.1,0.3-0.2,0.4c-0.1,0.1-0.1,0.2-0.3,0.3   c-0.1,0.1-0.2,0.2-0.4,0.3c-0.1,0.1-0.3,0.1-0.5,0.2c-0.2,0-0.4,0.1-0.6,0.1c-0.3,0-0.6,0-0.8-0.1c-0.3-0.1-0.5-0.2-0.7-0.4   c-0.2-0.2-0.4-0.4-0.5-0.7C55.1,71.7,55,71.4,55,71c0-0.4,0.1-0.8,0.2-1.2c0.2-0.4,0.4-0.7,0.7-1c0.3-0.3,0.6-0.5,1-0.6   c0.4-0.1,0.8-0.2,1.2-0.2c0.5,0,1.1,0.1,1.9,0.2L60,68.9l-0.1,2.7c0,0.1,0,0.4,0,1l0,1c0,0.2,0,0.4-0.1,0.6c0,0.1-0.1,0.3-0.2,0.4   c-0.1,0.1-0.1,0.2-0.2,0.3c-0.1,0.1-0.2,0.2-0.3,0.2c-0.1,0.1-0.2,0.1-0.4,0.2c-0.2,0.1-0.4,0.1-0.6,0.1c-0.2,0-0.4,0.1-0.7,0.1   c-0.3,0-0.6,0-0.9,0c-0.3,0-0.6-0.1-1-0.2l0-0.3C55.5,74.9,55.5,74.7,55.4,74.5z M59.2,68.8c-0.4-0.1-0.7-0.1-1-0.1   c-0.3,0-0.6,0-0.9,0.1c-0.3,0.1-0.5,0.2-0.7,0.4c-0.2,0.2-0.4,0.5-0.5,0.8c-0.1,0.3-0.2,0.6-0.2,1c0,0.3,0.1,0.6,0.2,0.9   c0.1,0.3,0.3,0.4,0.5,0.6c0.2,0.1,0.5,0.2,0.8,0.2c0.3,0,0.5,0,0.7-0.1c0.2-0.1,0.4-0.2,0.5-0.4c0.2-0.2,0.3-0.4,0.4-0.7   c0.1-0.2,0.1-0.4,0.1-0.8C59.1,70.3,59.1,69.7,59.2,68.8z"></path>
	<path class="st2" d="M61.2,73.1l0.1-2.1l0.1-2.9l0-1.6l0.4,0c0.1,0,0.3,0,0.4,0l-0.1,1.7l0,1c0.1-0.1,0.1-0.2,0.2-0.3   c0.1-0.1,0.1-0.2,0.2-0.2c0.1-0.1,0.2-0.2,0.3-0.2c0.1-0.1,0.2-0.1,0.3-0.2c0.1,0,0.3-0.1,0.4-0.1c0.2,0,0.3,0,0.5,0   c0.3,0,0.5,0,0.8,0.1c0.2,0.1,0.5,0.2,0.6,0.3c0.2,0.1,0.3,0.3,0.4,0.5c0.1,0.2,0.1,0.4,0.1,0.6c0,0.1,0,0.2,0,0.3   c0,0.2,0,0.4,0,0.7L66,72.4c0,0.2,0,0.4,0,0.7c-0.2,0-0.3,0-0.4,0c-0.1,0-0.3,0-0.5,0c0-0.3,0.1-0.9,0.1-1.6c0-0.7,0.1-1.3,0.1-1.6   c0-0.3,0-0.5-0.1-0.6c-0.1-0.2-0.2-0.3-0.5-0.4c-0.2-0.1-0.5-0.1-0.7-0.1c-0.2,0-0.5,0-0.7,0.1c-0.2,0.1-0.4,0.2-0.5,0.3   c-0.1,0.1-0.2,0.3-0.3,0.4c-0.1,0.2-0.1,0.4-0.2,0.6c-0.1,0.3-0.1,0.7-0.1,1.3c0,0.3,0,0.9-0.1,1.7c-0.2,0-0.3,0-0.4,0   C61.6,73.1,61.4,73.1,61.2,73.1z"></path>
	<path class="st2" d="M69.9,73.1l0.1-1.2l0.1-2.1l0-1.6l0.4,0l0.4,0c0,0.5-0.1,1-0.1,1.6c0,0.5-0.1,1.1-0.1,1.8c0,0.6,0,1.2,0,1.5   c-0.2,0-0.3,0-0.4,0C70.3,73.1,70.1,73.1,69.9,73.1z M70.1,67.1c0-0.3,0-0.5,0-0.7c0.2,0,0.3,0,0.5,0c0.2,0,0.3,0,0.5,0   c0,0.1,0,0.3,0,0.7c-0.2,0-0.3,0-0.4,0C70.5,67.1,70.3,67.1,70.1,67.1z"></path>
	<path class="st2" d="M72.2,73.1c0.2-2,0.2-3.6,0.2-4.9l0.4,0c0.1,0,0.2,0,0.4,0l-0.1,1c0.1-0.1,0.1-0.2,0.2-0.3   c0.1-0.1,0.1-0.1,0.2-0.2c0.1-0.1,0.2-0.2,0.3-0.2c0.1-0.1,0.2-0.1,0.4-0.2c0.2,0,0.3-0.1,0.5-0.1c0.2,0,0.3,0,0.5,0   c0.3,0,0.5,0,0.8,0.1c0.3,0.1,0.5,0.2,0.6,0.3c0.2,0.2,0.3,0.3,0.3,0.5c0.1,0.2,0.1,0.4,0.1,0.6c0,0,0,0.1,0,0.2c0,0.1,0,0.3,0,0.5   l-0.1,2c0,0.2,0,0.4,0,0.7c-0.1,0-0.3,0-0.4,0c-0.2,0-0.3,0-0.4,0c0-0.4,0.1-0.8,0.1-1.1l0.1-1.1c0-0.4,0-0.7,0-0.9   c0-0.3,0-0.5-0.1-0.7c-0.1-0.2-0.3-0.3-0.5-0.4c-0.2-0.1-0.4-0.1-0.7-0.1c-0.4,0-0.7,0.1-1,0.3c-0.2,0.2-0.4,0.4-0.6,0.7   c-0.1,0.2-0.2,0.5-0.2,1c-0.1,0.5-0.1,1.3-0.1,2.4c-0.2,0-0.3,0-0.4,0C72.5,73.1,72.4,73.1,72.2,73.1z"></path>
	<path class="st2" d="M78.2,73.1c0.2-2,0.2-3.6,0.2-4.9l0.4,0c0.1,0,0.2,0,0.4,0l-0.1,1c0.1-0.1,0.1-0.2,0.2-0.3   c0-0.1,0.1-0.1,0.2-0.2c0.1-0.1,0.2-0.2,0.3-0.2c0.1-0.1,0.2-0.1,0.4-0.2c0.2,0,0.3-0.1,0.5-0.1c0.2,0,0.3,0,0.5,0   c0.3,0,0.5,0,0.8,0.1c0.3,0.1,0.5,0.2,0.6,0.3c0.2,0.2,0.3,0.3,0.3,0.5c0.1,0.2,0.1,0.4,0.1,0.6c0,0,0,0.1,0,0.2c0,0.1,0,0.3,0,0.5   l-0.1,2c0,0.2,0,0.4,0,0.7c-0.1,0-0.3,0-0.4,0c-0.2,0-0.3,0-0.4,0c0-0.4,0.1-0.8,0.1-1.1l0.1-1.1c0-0.4,0-0.7,0-0.9   c0-0.3,0-0.5-0.1-0.7c-0.1-0.2-0.2-0.3-0.5-0.4c-0.2-0.1-0.4-0.1-0.7-0.1c-0.4,0-0.7,0.1-1,0.3c-0.2,0.2-0.4,0.4-0.6,0.7   c-0.1,0.2-0.2,0.5-0.2,1c-0.1,0.5-0.1,1.3-0.1,2.4c-0.2,0-0.3,0-0.4,0C78.6,73.1,78.4,73.1,78.2,73.1z"></path>
	<path class="st2" d="M86.8,68.1c0.3,0,0.7,0,1,0.1c0.3,0.1,0.6,0.2,0.8,0.5c0.2,0.2,0.4,0.5,0.5,0.8c0.1,0.3,0.2,0.7,0.2,1   c0,0.4-0.1,0.8-0.2,1.1c-0.1,0.4-0.3,0.6-0.5,0.9c-0.2,0.2-0.5,0.4-0.8,0.5c-0.3,0.1-0.7,0.2-1,0.2c-0.3,0-0.7-0.1-1-0.2   c-0.3-0.1-0.6-0.3-0.8-0.5c-0.2-0.2-0.4-0.5-0.5-0.8c-0.1-0.3-0.2-0.6-0.2-1c0-0.5,0.1-1,0.3-1.4c0.2-0.4,0.5-0.7,0.9-0.9   C85.8,68.2,86.3,68.1,86.8,68.1z M86.7,68.7c-0.3,0-0.6,0.1-0.9,0.2c-0.3,0.2-0.5,0.4-0.6,0.7C85.1,70,85,70.4,85,70.8   c0,0.3,0.1,0.6,0.2,0.9c0.1,0.3,0.3,0.5,0.5,0.7c0.2,0.2,0.6,0.3,0.9,0.3c0.2,0,0.5,0,0.7-0.1c0.2-0.1,0.4-0.2,0.6-0.4   c0.2-0.2,0.3-0.4,0.4-0.7c0.1-0.3,0.1-0.6,0.1-0.9c0-0.3,0-0.5-0.1-0.8c-0.1-0.2-0.2-0.4-0.4-0.6c-0.2-0.2-0.3-0.3-0.5-0.3   C87.1,68.7,86.9,68.7,86.7,68.7z"></path>
	<path class="st2" d="M91.5,73.1l-0.2-0.5c-0.1-0.2-0.2-0.5-0.4-1.1l-1.2-3.3c0.2,0,0.3,0,0.5,0c0.1,0,0.3,0,0.4,0l0.1,0.3   c0,0.1,0.1,0.3,0.2,0.5l1.1,3.4l1.5-3.7l0.2-0.5c0.2,0,0.3,0,0.5,0c0.1,0,0.3,0,0.5,0l-0.6,1.3l-1.3,2.8l-0.3,0.7   c-0.2,0-0.4,0-0.5,0C91.9,73.1,91.7,73.1,91.5,73.1z"></path>
	<path class="st2" d="M95.5,69c0-0.1,0.1-0.3,0.1-0.6c0.4-0.1,0.7-0.2,1-0.2c0.3,0,0.6-0.1,0.8-0.1c0.3,0,0.6,0,0.8,0.1   c0.3,0.1,0.5,0.1,0.6,0.3c0.2,0.1,0.3,0.3,0.3,0.4c0.1,0.2,0.1,0.3,0.1,0.5c0,0.2,0,0.6-0.1,1.1c0,0.5-0.1,1-0.1,1.4   c0,0.4,0,0.8,0,1.2c-0.2,0-0.3,0-0.4,0c-0.1,0-0.2,0-0.4,0l0.1-1.3l0.1-1.6c-0.1,0.1-0.2,0.1-0.3,0.2c-0.1,0-0.1,0.1-0.2,0.1   c-0.1,0-0.1,0.1-0.2,0.1c-0.1,0-0.3,0.1-0.5,0.1c-0.2,0.1-0.4,0.1-0.5,0.2c-0.2,0.1-0.4,0.1-0.5,0.2c-0.1,0.1-0.2,0.1-0.3,0.2   c-0.1,0.1-0.1,0.2-0.2,0.3c0,0.1-0.1,0.2-0.1,0.3c0,0.2,0,0.3,0.2,0.5c0.1,0.1,0.2,0.2,0.4,0.3c0.2,0.1,0.3,0.1,0.6,0.1   c0.1,0,0.3,0,0.4,0c0.1,0,0.3-0.1,0.6-0.1c0,0.1-0.1,0.3-0.2,0.6c-0.2,0-0.4,0.1-0.6,0.1c-0.1,0-0.3,0-0.4,0c-0.4,0-0.8-0.1-1-0.2   c-0.2-0.1-0.4-0.3-0.6-0.5c-0.1-0.2-0.2-0.4-0.2-0.7c0-0.1,0-0.3,0.1-0.4c0-0.1,0.1-0.2,0.2-0.3c0.1-0.1,0.2-0.2,0.3-0.3   c0.1-0.1,0.3-0.2,0.4-0.2c0.1-0.1,0.3-0.1,0.5-0.2c0.2-0.1,0.5-0.1,1-0.3c0.1,0,0.3-0.1,0.4-0.1c0.1,0,0.2-0.1,0.3-0.1   c0.1,0,0.1-0.1,0.2-0.1c0.1,0,0.1-0.1,0.2-0.2c0-0.1,0.1-0.1,0.1-0.2c0-0.1,0-0.1,0-0.2c0-0.2-0.1-0.3-0.2-0.4   c-0.1-0.1-0.2-0.2-0.4-0.2c-0.2,0-0.4-0.1-0.6-0.1c-0.2,0-0.4,0-0.6,0.1c-0.2,0-0.4,0.1-0.6,0.1C95.9,68.8,95.7,68.9,95.5,69z"></path>
	<path class="st2" d="M103,72.5c0,0.2-0.1,0.4-0.1,0.6c-0.2,0.1-0.4,0.1-0.5,0.1c-0.1,0-0.3,0-0.4,0c-0.3,0-0.5,0-0.7-0.1   c-0.2-0.1-0.3-0.2-0.4-0.3c-0.1-0.2-0.1-0.4-0.1-0.6c0,0,0-0.1,0-0.2c0-0.1,0-0.4,0-0.9l0.1-2.2h-0.6c0-0.1,0-0.3,0-0.6h0.7   c0-0.2,0-0.5,0-0.9c0.3-0.1,0.6-0.1,0.8-0.2c0,0.5,0,0.8,0,1.1h1.3c0,0.2,0,0.4,0,0.6h-1.3l-0.1,2.7l0,0.2c0,0.2,0,0.4,0.1,0.5   c0.1,0.1,0.1,0.2,0.2,0.3c0.1,0.1,0.2,0.1,0.3,0.1c0.1,0,0.2,0,0.3,0C102.6,72.6,102.8,72.5,103,72.5z"></path>
	<path class="st2" d="M103.8,73.1l0.1-1.2l0.1-2.1l0-1.6l0.4,0l0.4,0c0,0.5-0.1,1-0.1,1.6c0,0.5-0.1,1.1-0.1,1.8c0,0.6,0,1.2,0,1.5   c-0.2,0-0.3,0-0.4,0C104.2,73.1,104.1,73.1,103.8,73.1z M104.1,67.1c0-0.3,0-0.5,0-0.7c0.2,0,0.3,0,0.5,0c0.2,0,0.3,0,0.5,0   c0,0.1,0,0.3,0,0.7c-0.2,0-0.3,0-0.4,0C104.4,67.1,104.3,67.1,104.1,67.1z"></path>
	<path class="st2" d="M108.6,68.1c0.3,0,0.7,0,1,0.1c0.3,0.1,0.6,0.2,0.8,0.5c0.2,0.2,0.4,0.5,0.5,0.8c0.1,0.3,0.2,0.7,0.2,1   c0,0.4-0.1,0.8-0.2,1.1c-0.1,0.4-0.3,0.6-0.5,0.9c-0.2,0.2-0.5,0.4-0.8,0.5c-0.3,0.1-0.7,0.2-1,0.2c-0.3,0-0.7-0.1-1-0.2   c-0.3-0.1-0.6-0.3-0.8-0.5c-0.2-0.2-0.4-0.5-0.5-0.8c-0.1-0.3-0.2-0.6-0.2-1c0-0.5,0.1-1,0.3-1.4c0.2-0.4,0.5-0.7,0.9-0.9   C107.7,68.2,108.1,68.1,108.6,68.1z M108.6,68.7c-0.3,0-0.6,0.1-0.9,0.2c-0.3,0.2-0.5,0.4-0.6,0.7c-0.1,0.3-0.2,0.7-0.2,1.1   c0,0.3,0.1,0.6,0.2,0.9c0.1,0.3,0.3,0.5,0.5,0.7c0.2,0.2,0.6,0.3,0.9,0.3c0.2,0,0.5,0,0.7-0.1c0.2-0.1,0.4-0.2,0.6-0.4   c0.2-0.2,0.3-0.4,0.4-0.7c0.1-0.3,0.1-0.6,0.1-0.9c0-0.3,0-0.5-0.1-0.8c-0.1-0.2-0.2-0.4-0.4-0.6c-0.2-0.2-0.3-0.3-0.5-0.3   C109,68.7,108.8,68.7,108.6,68.7z"></path>
	<path class="st2" d="M112,73.1c0.2-2,0.2-3.6,0.2-4.9l0.4,0c0.1,0,0.2,0,0.4,0l-0.1,1c0.1-0.1,0.1-0.2,0.2-0.3   c0-0.1,0.1-0.1,0.2-0.2c0.1-0.1,0.2-0.2,0.3-0.2c0.1-0.1,0.2-0.1,0.4-0.2c0.2,0,0.3-0.1,0.5-0.1c0.2,0,0.3,0,0.5,0   c0.3,0,0.5,0,0.8,0.1c0.3,0.1,0.5,0.2,0.6,0.3c0.2,0.2,0.3,0.3,0.3,0.5c0.1,0.2,0.1,0.4,0.1,0.6c0,0,0,0.1,0,0.2c0,0.1,0,0.3,0,0.5   l-0.1,2c0,0.2,0,0.4,0,0.7c-0.1,0-0.3,0-0.4,0c-0.2,0-0.3,0-0.4,0c0-0.4,0.1-0.8,0.1-1.1l0.1-1.1c0-0.4,0-0.7,0-0.9   c0-0.3,0-0.5-0.1-0.7c-0.1-0.2-0.2-0.3-0.5-0.4c-0.2-0.1-0.4-0.1-0.7-0.1c-0.4,0-0.7,0.1-1,0.3c-0.2,0.2-0.4,0.4-0.6,0.7   c-0.1,0.2-0.2,0.5-0.2,1c0,0.5-0.1,1.3-0.1,2.4c-0.2,0-0.3,0-0.4,0C112.4,73.1,112.2,73.1,112,73.1z"></path>
</g>
</svg>
