<svg xmlns="http://www.w3.org/2000/svg" xml:space="preserve" id="Layer_1" x="0" y="0" class="header-main__white-logo lazy true" data-ll-status="entered" style="width:84px;height:58px" viewBox="0 0 121 79"><style>.st0{fill:#1b2750}.st1{fill:#ce181e}.st2{fill:#849ec3}</style><path d="M28.4 7c-.9-.2-2-.3-2.9-.3-5 0-9.9 2.8-10.6 7.1v.7h9.7c.5 0 .8.4.8.8v2.8c0 .5-.4.9-.8.9H15v.7c.7 4.3 5.6 7.1 10.6 7.1.9 0 2-.1 2.9-.3V7z" class="st0"/><path d="M28.4 31v-2.4h-3c-9.8 0-17.7-5.4-17.7-12 0-6.7 7.9-12 17.7-12h3V2.2h-3C13.3 2.2 3.8 7.9 3.8 16.6c0 9 9.4 14.4 21.6 14.4z" class="st1"/><path d="M114.9 6.1c.2-.1.3-.2.4-.3s.1-.3.1-.5c0-.1 0-.3-.1-.4s-.1-.2-.3-.3c-.1-.1-.3-.1-.5-.1h-.9v2.8h.4V6.1h.3s.1.1.2.3l.1.2.4.7h.5l-.4-.9c0-.2-.1-.3-.2-.3m-.4-.3h-.3v-1h.3c.1 0 .3 0 .3.1.1 0 .1.1.1.2s.1.1.1.2 0 .3-.1.4c-.1 0-.2.1-.4.1" class="st0"/><path d="M112.3 5.9c0-1.3 1-2.3 2.3-2.3s2.3 1 2.3 2.3-1 2.3-2.3 2.3-2.3-1-2.3-2.3m.3 0c0 1.1.9 2 2 2s2-.9 2-2-.9-2-2-2-2 .9-2 2M44.9 13.4c0-4.9-2.8-9-12.3-9V31h2.7v-8.7c6.3-1 9.6-5.6 9.6-8.9m-9.6 6.5v-13c3.9.7 6.8 3.4 6.8 6.5s-2.9 5.7-6.8 6.5M48.9 4.5h2.7v26.6h-2.7zM80.3 18.9c0 5.1-2.7 9.3-6.1 9.3s-6.1-4.1-6.1-9.3V4.4h-2.7v14.5c0 6.7 4 12.1 8.8 12.1 4.9 0 8.8-5.4 8.8-12.1V4.4h-2.7zM99 30.6l10.5.6-.1-3.1h-7.7v-9.4l6.5.1v-2.9l-6.5.2V7.5h7.3l-.1-3.1L99 5zM86.4 28.7h.1c.1 0 .2-.1.4-.2l.6-.3c.2-.1.5-.2.8-.4.3-.1.6-.3.9-.5s.6-.3.9-.5l.9-.6c.3-.2.6-.4.8-.7.3-.2.5-.5.7-.7s.4-.5.5-.7.3-.5.3-.7c.1-.2.1-.4.1-.6v-.1c0-.2 0-.4-.1-.6s-.2-.5-.3-.8c-.2-.3-.4-.6-.7-.9 0 0-.1 0-.1-.1l-.3-.3c-.3-.2-.6-.5-1-.7-.7-.5-1.5-1-1.8-1.3-.6-.5-1.1-1-1.6-1.4-.4-.5-.8-1-1.1-1.5q-.45-.75-.6-1.5c-.1-.3-.1-.7-.1-1V12c.1-.5.2-1 .4-1.4s.4-.8.7-1.2.6-.7.9-1.1c.3-.3.7-.6 1-.9.3-.2.7-.4 1-.7.4-.2.7-.5 1.1-.7s.7-.4 1-.6.6-.3.9-.4.5-.2.7-.3.4-.2.5-.2.2-.1.2-.1l1 2.6H95c-.1 0-.2.1-.4.2s-.4.2-.7.3c-.2.1-.5.2-.8.4-.3.1-.6.3-.9.5-.2.2-.5.4-.8.6s-.6.4-.9.7c-.3.2-.6.5-.8.7s-.4.5-.6.7-.3.5-.4.7-.2.5-.2.7v.6c0 .2.1.5.3.8s.4.6.7 1c.3.3.7.7 1.2 1.1.2.2.8.6 1.5 1.1.6.5 1.3.9 1.7 1.3.1.1.2.2.4.3.4.5.8.9 1.1 1.4s.5 1 .7 1.5c.1.4.2.9.2 1.3v.2c0 .5-.1 1-.3 1.4-.1.4-.3.9-.6 1.2-.2.4-.5.7-.8 1.1-.3.3-.6.7-.9.9-.3.3-.7.6-1 .8-.4.3-.7.5-1.1.7-.3.2-.7.4-1 .6s-.7.4-1 .5-.6.3-.8.4c-.3.1-.5.2-.7.3s-.3.1-.5.2c-.1 0-.2.1-.2.1zM75.7 44.7c0-1.1-.8-1.6-2.6-1.6h-7.9v3.2h7.9c1.8 0 2.6-.6 2.6-1.6M42.7 49h6.8l-3.4-5.1z" class="st0"/><path d="M103.9 34H6.2v17.2c0 5.9 4.7 10.6 10.6 10.6h97.7V44.6c0-5.8-4.8-10.6-10.6-10.6M30.8 54.2H17.4V41.3h2.4v11.2h11zm22.2 0-2.3-3.4h-9.2l-2.2 3.4h-2.6l8.4-12.8v-.1H47l8.6 12.9zm20.5 0H62.8V41.3H73c3.4 0 5.2 1.1 5.2 3.3 0 1-.5 1.8-1.3 2.3 1.7.8 2.5 1.9 2.5 3.4-.1 2.4-2.3 3.9-5.9 3.9m22.2.3c-3.3 0-6.2-.7-8.9-2.2l-.2-.1 1.4-1.5.1-.1.1.1c2.4 1.4 5 2.1 7.5 2.1 3.2 0 5.1-1.2 5.1-2.5 0-1-1.2-1.9-3.8-2.1-2.9-.2-5.2-.2-7-.8-1.6-.6-2.5-1.5-2.5-2.7 0-2.1 2.7-3.6 6.7-3.6 2.9 0 5.7.7 8.2 2.1l.2.1-1.4 1.5-.1-.1c-2.1-1.2-4.4-1.9-6.8-1.9-1.3 0-2.4.2-3.1.6-.7.3-1.1.8-1.1 1.2s.2.7.7 1c1.4.8 3.8.6 6.9.9 3.6.3 5.7 1.8 5.7 3.9-.1 2.3-3 4.1-7.7 4.1" class="st0"/><path d="M73.9 48h-8.7v4.4h8.7c1.9 0 2.9-.9 2.9-2.2s-1-2.1-2.9-2.2" class="st0"/><path d="M56.8 15h3.6v3.6h-3.6z" class="st1"/><path d="m5.1 73.1-.2-.5c-.1-.2-.2-.5-.4-1.1l-1.2-3.3h.9l.1.3c0 .1.1.3.1.5l1.1 3.4L7 68.7l.2-.5h1l-.6 1.3-1.3 2.8-.3.8h-.9M9.1 69c0-.1.1-.3.1-.6.4-.1.7-.2 1-.2s.6-.1.8-.1c.3 0 .6 0 .8.1.3.1.5.1.6.3.2.1.3.3.3.4.1.2.1.3.1.5s0 .6-.1 1.1c0 .5-.1 1-.1 1.4v1.2h-.8l.1-1.3.1-1.6c-.1.1-.2.1-.3.2-.1 0-.1.1-.2.1s-.1.1-.2.1-.3.1-.5.1c-.2.1-.4.1-.5.2-.2.1-.4.1-.5.2s-.2.1-.3.2-.1.2-.2.3c0 .1-.1.2-.1.3 0 .2.1.3.2.5.1.1.2.2.4.3s.3.1.6.1h.4c.1 0 .3-.1.6-.1 0 .1-.1.3-.2.6-.2 0-.4.1-.6.1h-.4c-.4 0-.8-.1-1-.2s-.4-.3-.6-.5c-.1-.2-.2-.4-.2-.7 0-.1 0-.3.1-.4 0-.1.1-.2.2-.3 0-.2.1-.3.3-.4.1-.1.3-.2.4-.2.1-.1.3-.1.5-.2s.5-.1 1-.3c.1 0 .3-.1.4-.1s.2-.1.3-.1.1-.1.2-.1.1-.1.2-.2c0-.1.1-.1.1-.2v-.2c0-.2-.1-.3-.2-.4s-.2-.2-.4-.2-.4-.1-.6-.1-.4 0-.6.1c-.2 0-.4.1-.6.1s-.4.1-.6.2M14.1 73.1c.1-1 .1-2.2.2-3.5 0-1 .1-2 .1-3.1h.8l-.1 2.8-.1 2.9v.9h-.9M21 73.1h-.8v-.9c-.1.1-.1.3-.2.3-.1.1-.1.2-.2.2-.1.1-.2.1-.3.2s-.2.1-.3.1-.3.1-.4.1h-.5c-.4 0-.7-.1-1-.2s-.5-.3-.6-.5-.2-.5-.2-.9v-.8l.1-1.6v-1h.8c0 .6-.1 1.2-.1 1.8 0 .7-.1 1.1-.1 1.3 0 .3 0 .5.1.7s.2.3.5.4c.2.1.5.1.7.1s.5 0 .7-.1.3-.2.5-.3c.1-.1.3-.3.3-.5.1-.2.1-.4.2-.6 0-.2 0-.5.1-1 0-.6 0-1.2.1-1.8h.9c0 .6-.1 1.5-.2 2.6-.1.8-.1 1.5-.1 2.4M26.4 72.3c0 .2-.1.4-.1.7-.3.1-.6.1-.8.2h-.7c-.4 0-.8-.1-1.1-.1-.3-.1-.6-.3-.8-.5s-.4-.5-.5-.8-.2-.6-.2-1c0-.5.1-.9.3-1.3s.5-.7.8-1c.4-.2.8-.3 1.4-.3.3 0 .6 0 .8.1.3.1.5.2.7.4s.3.4.4.6c.1.3.1.5.1.8v.3H23v.4c0 .3.1.6.2.9q.15.45.6.6c.3.1.6.2 1 .2.5.1 1 0 1.6-.2M23.1 70H26v-.5c0-.1-.1-.2-.1-.4-.1-.1-.1-.2-.2-.3s-.2-.2-.4-.2c-.1 0-.3-.1-.5-.1s-.4 0-.5.1c-.2.1-.3.1-.4.2l-.3.3c-.1.1-.2.2-.2.4-.2.2-.2.3-.3.5M32.8 72.5c0 .2-.1.4-.1.6-.2.1-.4.1-.5.1h-.4c-.3 0-.5 0-.7-.1s-.3-.2-.4-.3c-.1-.2-.1-.4-.1-.6v-1.1l.1-2.2h-.6v-.6h.7v-.9c.3-.1.6-.1.8-.2v1.1h1.3v.6h-1.3l-.1 2.7v.2c0 .2 0 .4.1.5s.1.2.2.3.2.1.3.1h.3c0-.1.1-.2.4-.2M33.6 73.1l.1-2.1.1-2.9v-1.6h.8l-.1 1.7v1c.1-.1.1-.2.2-.3s.1-.2.2-.2c.1-.1.2-.2.3-.2.1-.1.2-.1.3-.2.1 0 .3-.1.4-.1h.5c.3 0 .5 0 .8.1.2.1.5.2.6.3.2.1.3.3.4.5s.1.4.1.6v1l-.1 1.8v.7h-.9c0-.3.1-.9.1-1.6s.1-1.3.1-1.6 0-.5-.1-.6c-.1-.2-.2-.3-.5-.4-.2-.1-.5-.1-.7-.1s-.5 0-.7.1-.4.2-.5.3-.2.3-.3.4c-.1.2-.1.4-.2.6-.1.3-.1.7-.1 1.3 0 .3 0 .9-.1 1.7h-.4c.1-.2-.1-.2-.3-.2M39.7 73.1c.1-1.9.2-3.3.2-4.4v-.4h.8v.8c.1-.2.2-.4.3-.4l.3-.3c.1-.1.2-.1.4-.2.1 0 .3-.1.5-.1h.4v.7c-.2-.1-.4-.1-.5-.1-.2 0-.4 0-.5.1-.2.1-.3.2-.4.3s-.2.3-.3.5c-.1.1-.1.3-.1.5s-.1.6-.1 1.2V73h-.4c-.3.1-.4.1-.6.1M45.7 68.1c.3 0 .7 0 1 .1s.6.2.8.5c.2.2.4.5.5.8s.2.7.2 1c0 .4-.1.8-.2 1.1-.1.4-.3.6-.5.9-.2.2-.5.4-.8.5s-.7.2-1 .2-.7-.1-1-.2-.6-.3-.8-.5-.4-.5-.5-.8-.2-.6-.2-1c0-.5.1-1 .3-1.4q.3-.6.9-.9c.4-.2.8-.3 1.3-.3m0 .6c-.3 0-.6.1-.9.2-.3.2-.5.4-.6.7s-.2.7-.2 1.1c0 .3.1.6.2.9s.3.5.5.7q.45.3.9.3c.2 0 .5 0 .7-.1s.4-.2.6-.4.3-.4.4-.7.1-.6.1-.9 0-.5-.1-.8c-.1-.2-.2-.4-.4-.6s-.3-.3-.5-.3c-.3-.1-.5-.1-.7-.1M53.8 73.1H53v-.9c-.1.1-.1.3-.2.3-.1.1-.1.2-.2.2-.1.1-.2.1-.3.2s-.2.1-.3.2c-.1 0-.3.1-.4.1h-.5c-.4 0-.7-.1-1-.2s-.5-.3-.6-.5-.2-.5-.2-.9v-.8l.1-1.6v-1h.8c0 .6-.1 1.2-.1 1.8 0 .7-.1 1.1-.1 1.3 0 .3 0 .5.1.7s.2.3.5.4c.2.1.5.1.7.1s.5 0 .7-.1.3-.2.5-.3c.1-.1.3-.3.3-.5.1-.2.1-.4.2-.6 0-.2 0-.5.1-1 0-.6 0-1.2.1-1.8h.9c0 .6-.1 1.5-.2 2.6-.1.7-.1 1.4-.1 2.3M55.4 74.5c.4.1.8.2 1.1.3.3 0 .5.1.8.1s.5 0 .7-.1.4-.1.5-.3l.3-.3c.1-.2.1-.4.2-.7 0-.2.1-.7.1-1.4-.1.1-.1.3-.2.4s-.1.2-.3.3c-.1.1-.2.2-.4.3-.1.1-.3.1-.5.2-.2 0-.4.1-.6.1-.3 0-.6 0-.8-.1-.3-.1-.5-.2-.7-.4s-.4-.4-.5-.7c0-.5-.1-.8-.1-1.2s.1-.8.2-1.2c.2-.4.4-.7.7-1s.6-.5 1-.6.8-.2 1.2-.2c.5 0 1.1.1 1.9.2v.7l-.1 2.7v2c0 .2 0 .4-.1.6 0 .1-.1.3-.2.4s-.1.2-.2.3-.2.2-.3.2c-.1.1-.2.1-.4.2s-.4.1-.6.1-.4.1-.7.1h-.9c-.3 0-.6-.1-1-.2V75c0-.1 0-.3-.1-.5m3.8-5.7c-.4-.1-.7-.1-1-.1s-.6 0-.9.1-.5.2-.7.4-.4.5-.5.8-.2.6-.2 1c0 .3.1.6.2.9s.3.4.5.6c.2.1.5.2.8.2s.5 0 .7-.1.4-.2.5-.4c.2-.2.3-.4.4-.7.1-.2.1-.4.1-.8s0-1 .1-1.9M61.2 73.1l.1-2.1.1-2.9v-1.6h.8l-.1 1.7v1c.1-.1.1-.2.2-.3s.1-.2.2-.2c.1-.1.2-.2.3-.2.1-.1.2-.1.3-.2.1 0 .3-.1.4-.1h.5c.3 0 .5 0 .8.1.2.1.5.2.6.3.2.1.3.3.4.5s.1.4.1.6v1l.1 1.7v.7h-.9c0-.3.1-.9.1-1.6s.1-1.3.1-1.6 0-.5-.1-.6c-.1-.2-.2-.3-.5-.4-.2-.1-.5-.1-.7-.1s-.5 0-.7.1-.4.2-.5.3-.2.3-.3.4c-.1.2-.1.4-.2.6-.1.3-.1.7-.1 1.3 0 .3 0 .9-.1 1.7h-.4c-.1-.1-.3-.1-.5-.1M69.9 73.1l.1-1.2.1-2.1v-1.6h.8c0 .5-.1 1-.1 1.6 0 .5-.1 1.1-.1 1.8v1.5h-.8m.2-6v-.7h1v.7h-1M72.2 73.1c.2-2 .2-3.6.2-4.9h.8l-.1 1c.1-.1.1-.2.2-.3l.2-.2c.1-.1.2-.2.3-.2.1-.1.2-.1.4-.2.2 0 .3-.1.5-.1h.5c.3 0 .5 0 .8.1q.45.15.6.3c.2.2.3.3.3.5.1.2.1.4.1.6v.7l-.1 2v.7h-.8c0-.4.1-.8.1-1.1l.1-1.1V70c0-.3 0-.5-.1-.7s-.3-.3-.5-.4-.4-.1-.7-.1c-.4 0-.7.1-1 .3-.2.2-.4.4-.6.7-.1.2-.2.5-.2 1-.1.5-.1 1.3-.1 2.4h-.4c-.2-.1-.3-.1-.5-.1M78.2 73.1c.2-2 .2-3.6.2-4.9h.8l-.1 1c.1-.1.1-.2.2-.3 0-.1.1-.1.2-.2s.2-.2.3-.2c.1-.1.2-.1.4-.2.2 0 .3-.1.5-.1h.5c.3 0 .5 0 .8.1q.45.15.6.3c.2.2.3.3.3.5.1.2.1.4.1.6v.7l-.1 2v.7h-.8c0-.4.1-.8.1-1.1l.1-1.1V70c0-.3 0-.5-.1-.7s-.2-.3-.5-.4c-.2-.1-.4-.1-.7-.1-.4 0-.7.1-1 .3-.2.2-.4.4-.6.7-.1.2-.2.5-.2 1-.1.5-.1 1.3-.1 2.4h-.4c-.1-.1-.3-.1-.5-.1M86.8 68.1c.3 0 .7 0 1 .1s.6.2.8.5c.2.2.4.5.5.8s.2.7.2 1c0 .4-.1.8-.2 1.1-.1.4-.3.6-.5.9-.2.2-.5.4-.8.5s-.7.2-1 .2-.7-.1-1-.2-.6-.3-.8-.5-.4-.5-.5-.8-.2-.6-.2-1c0-.5.1-1 .3-1.4q.3-.6.9-.9c.3-.2.8-.3 1.3-.3m-.1.6c-.3 0-.6.1-.9.2-.3.2-.5.4-.6.7-.1.4-.2.8-.2 1.2 0 .3.1.6.2.9s.3.5.5.7.6.3.9.3c.2 0 .5 0 .7-.1s.4-.2.6-.4.3-.4.4-.7.1-.6.1-.9 0-.5-.1-.8c-.1-.2-.2-.4-.4-.6s-.3-.3-.5-.3c-.3-.2-.5-.2-.7-.2M91.5 73.1l-.2-.5c-.1-.2-.2-.5-.4-1.1l-1.2-3.3h.9l.1.3c0 .1.1.3.2.5l1.1 3.4 1.5-3.7.2-.5h1l-.6 1.3-1.3 2.8-.3.7H92c-.1.1-.3.1-.5.1M95.5 69c0-.1.1-.3.1-.6.4-.1.7-.2 1-.2s.6-.1.8-.1c.3 0 .6 0 .8.1.3.1.5.1.6.3.2.1.3.3.3.4.1.2.1.3.1.5s0 .6-.1 1.1c0 .5-.1 1-.1 1.4v1.2h-.8l.1-1.3.1-1.6c-.1.1-.2.1-.3.2-.1 0-.1.1-.2.1s-.1.1-.2.1-.3.1-.5.1c-.2.1-.4.1-.5.2-.2.1-.4.1-.5.2s-.2.1-.3.2-.1.2-.2.3c0 .1-.1.2-.1.3 0 .2 0 .3.2.5.1.1.2.2.4.3s.3.1.6.1h.4c.1 0 .3-.1.6-.1 0 .1-.1.3-.2.6-.2 0-.4.1-.6.1h-.4c-.4 0-.8-.1-1-.2s-.4-.3-.6-.5c-.1-.2-.2-.4-.2-.7 0-.1 0-.3.1-.4 0-.1.1-.2.2-.3l.3-.3c.1-.1.3-.2.4-.2.1-.1.3-.1.5-.2s.5-.1 1-.3c.1 0 .3-.1.4-.1s.2-.1.3-.1.1-.1.2-.1.1-.1.2-.2c0-.1.1-.1.1-.2v-.2c0-.2-.1-.3-.2-.4s-.2-.2-.4-.2-.4-.1-.6-.1-.4 0-.6.1c-.2 0-.4.1-.6.1-.2-.1-.4 0-.6.1M103 72.5c0 .2-.1.4-.1.6-.2.1-.4.1-.5.1h-.4c-.3 0-.5 0-.7-.1s-.3-.2-.4-.3c-.1-.2-.1-.4-.1-.6v-1.1l.1-2.2h-.6v-.6h.7v-.9c.3-.1.6-.1.8-.2v1.1h1.3v.6h-1.3l-.1 2.7v.2c0 .2 0 .4.1.5s.1.2.2.3.2.1.3.1h.3c0-.1.2-.2.4-.2M103.8 73.1l.1-1.2.1-2.1v-1.6h.8c0 .5-.1 1-.1 1.6 0 .5-.1 1.1-.1 1.8v1.5h-.8m.3-6v-.7h1v.7h-1M108.6 68.1c.3 0 .7 0 1 .1s.6.2.8.5c.2.2.4.5.5.8s.2.7.2 1c0 .4-.1.8-.2 1.1-.1.4-.3.6-.5.9-.2.2-.5.4-.8.5s-.7.2-1 .2-.7-.1-1-.2-.6-.3-.8-.5-.4-.5-.5-.8-.2-.6-.2-1c0-.5.1-1 .3-1.4q.3-.6.9-.9c.4-.2.8-.3 1.3-.3m0 .6c-.3 0-.6.1-.9.2-.3.2-.5.4-.6.7s-.2.7-.2 1.1c0 .3.1.6.2.9s.3.5.5.7.6.3.9.3c.2 0 .5 0 .7-.1s.4-.2.6-.4.3-.4.4-.7.1-.6.1-.9 0-.5-.1-.8c-.1-.2-.2-.4-.4-.6s-.3-.3-.5-.3c-.3-.1-.5-.1-.7-.1M112 73.1c.2-2 .2-3.6.2-4.9h.8l-.1 1c.1-.1.1-.2.2-.3 0-.1.1-.1.2-.2s.2-.2.3-.2c.1-.1.2-.1.4-.2.2 0 .3-.1.5-.1h.5c.3 0 .5 0 .8.1q.45.15.6.3c.2.2.3.3.3.5.1.2.1.4.1.6v.7l-.1 2v.7h-.8c0-.4.1-.8.1-1.1l.1-1.1V70c0-.3 0-.5-.1-.7s-.2-.3-.5-.4c-.2-.1-.4-.1-.7-.1-.4 0-.7.1-1 .3-.2.2-.4.4-.6.7-.1.2-.2.5-.2 1s-.1 1.3-.1 2.4h-.4c-.1-.1-.3-.1-.5-.1" class="st2"/></svg>