<svg width="16" height="16" viewBox="0 0 14.9333 14.9333" fill="none" xmlns="http://www.w3.org/2000/svg">
<path id="Icon" d="M5.52667 5.46667C5.6834 5.02111 5.99277 4.6454 6.39997 4.40609C6.80717 4.16677 7.28593 4.07929 7.75145 4.15914C8.21697 4.23899 8.63921 4.48102 8.94338 4.84235C9.24756 5.20369 9.41404 5.66101 9.41333 6.13333C9.41333 7.46667 7.41333 8.13333 7.41333 8.13333M7.46667 10.8H7.47333M14.1333 7.46667C14.1333 11.1486 11.1486 14.1333 7.46667 14.1333C3.78477 14.1333 0.8 11.1486 0.8 7.46667C0.8 3.78477 3.78477 0.8 7.46667 0.8C11.1486 0.8 14.1333 3.78477 14.1333 7.46667Z" stroke="#929292" stroke-width="1.6" stroke-linecap="round" stroke-linejoin="round"/>
</svg>
